# xmcd CD database file
#
# Track frame offsets:
#	150
#	17540
#	29279
#	40936
#	56073
#	70685
#	81773
#	95500
#	109511
#	125438
#	136128
#
# Disc length: 2065 seconds
#
# Revision: 0
# Processed by: cddbd v1.5.2PL0 Copyright (c) Steve Scherf et al.
# Submitted via: CDex 1.70beta2
#
DISCID=86080f0b
DTITLE=Alexander, Deennis (10) - Cdn. - OVM - Cty - Special Request - Ballads By Tom McSwiggan
DYEAR=2010
DGENRE=Country
TTITLE0=Come Back Paddy Reilly ( Percy French)
TTITLE1=The Blackberry Quadrille
TTITLE2=Eileen O'grady
TTITLE3=Sonny's Mazurka Set
TTITLE4=Green Hills of Erin
TTITLE5=O'brien's March
TTITLE6=Isle of Innesfree
TTITLE7=Alexander's Hornpipe
TTITLE8=Tennessee waltz
TTITLE9=Irish Polka
TTITLE10=Fields of Athenry ( Pete St.John)
EXTD=YEAR: 2010
EXTT0=
EXTT1=
EXTT2=
EXTT3=
EXTT4=
EXTT5=
EXTT6=
EXTT7=
EXTT8=
EXTT9=
EXTT10=
PLAYORDER=
